<svg width="32" height="32" viewBox="0 0 32 32" fill="none" xmlns="http://www.w3.org/2000/svg">
<rect width="32" height="32" rx="8" fill="#E1306C"/>
<path d="M20.2001 11.2001H21.4001M12.4001 7.6001H19.6001C22.2511 7.6001 24.4001 9.74913 24.4001 12.4001V19.6001C24.4001 22.2511 22.2511 24.4001 19.6001 24.4001H12.4001C9.74913 24.4001 7.6001 22.2511 7.6001 19.6001V12.4001C7.6001 9.74913 9.74913 7.6001 12.4001 7.6001ZM16.0001 19.6001C14.0119 19.6001 12.4001 17.9883 12.4001 16.0001C12.4001 14.0119 14.0119 12.4001 16.0001 12.4001C17.9883 12.4001 19.6001 14.0119 19.6001 16.0001C19.6001 17.9883 17.9883 19.6001 16.0001 19.6001Z" stroke="white"/>
</svg>
