<svg width="32" height="32" viewBox="0 0 32 32" fill="none" xmlns="http://www.w3.org/2000/svg">
<rect width="32" height="32" rx="8" fill="#4AC959"/>
<path d="M10.5218 21.7172L11.0043 21.8486C11.0559 21.6589 10.9916 21.4566 10.84 21.3315L10.5218 21.7172ZM9.7914 24.4001L9.30896 24.2687C9.25777 24.4568 9.32048 24.6574 9.46962 24.7828C9.61877 24.9082 9.82718 24.9355 10.0036 24.8528L9.7914 24.4001ZM12.7131 23.0305L12.9014 22.5673C12.7723 22.5148 12.6271 22.5187 12.5009 22.5778L12.7131 23.0305ZM14.8001 14.8001L15.1001 14.4001L14.8073 14.1805L14.5095 14.3932L14.8001 14.8001ZM17.2001 16.6001L16.9001 17.0001L17.2164 17.2373L17.5202 16.9842L17.2001 16.6001ZM16.0001 7.1001C11.1054 7.1001 7.1001 10.9007 7.1001 15.6349H8.1001C8.1001 11.4943 11.6154 8.1001 16.0001 8.1001V7.1001ZM7.1001 15.6349C7.1001 18.2289 8.31196 20.5424 10.2037 22.1029L10.84 21.3315C9.15989 19.9455 8.1001 17.907 8.1001 15.6349H7.1001ZM10.0394 21.5859L9.30896 24.2687L10.2738 24.5314L11.0043 21.8486L10.0394 21.5859ZM10.0036 24.8528L12.9254 23.4833L12.5009 22.5778L9.57918 23.9474L10.0036 24.8528ZM12.5249 23.4937C13.5937 23.9281 14.7678 24.1697 16.0001 24.1697V23.1697C14.8994 23.1697 13.853 22.954 12.9014 22.5673L12.5249 23.4937ZM16.0001 24.1697C20.8948 24.1697 24.9001 20.3691 24.9001 15.6349H23.9001C23.9001 19.7754 20.3848 23.1697 16.0001 23.1697V24.1697ZM24.9001 15.6349C24.9001 10.9007 20.8948 7.1001 16.0001 7.1001V8.1001C20.3848 8.1001 23.9001 11.4943 23.9001 15.6349H24.9001ZM10.8907 18.207L15.0907 15.207L14.5095 14.3932L10.3095 17.3932L10.8907 18.207ZM14.5001 15.2001L16.9001 17.0001L17.5001 16.2001L15.1001 14.4001L14.5001 15.2001ZM17.5202 16.9842L21.1202 13.9842L20.48 13.216L16.88 16.216L17.5202 16.9842Z" fill="white"/>
</svg>
