<svg width="32" height="32" viewBox="0 0 32 32" fill="none" xmlns="http://www.w3.org/2000/svg">
<rect width="32" height="32" rx="8" fill="#00AFF0"/>
<path d="M23.5952 17.0088L23.0996 16.9421C23.0833 17.0633 23.112 17.1863 23.1802 17.2877L23.5952 17.0088ZM14.9914 8.40431L14.7124 8.81928C14.8133 8.88708 14.9354 8.91582 15.0559 8.90012L14.9914 8.40431ZM8.40432 14.9914L8.89999 15.057C8.91599 14.9362 8.8873 14.8136 8.81929 14.7124L8.40432 14.9914ZM17.0081 23.5959L17.2868 23.1808C17.1857 23.1129 17.0632 23.0842 16.9424 23.1002L17.0081 23.5959ZM24.0907 17.0756C24.1372 16.7301 24.1697 16.3715 24.1697 16.0001H23.1697C23.1697 16.3138 23.1422 16.6257 23.0996 16.9421L24.0907 17.0756ZM24.1697 16.0001C24.1697 11.4881 20.5113 7.83053 16.0001 7.83053V8.83053C19.959 8.83053 23.1697 12.0405 23.1697 16.0001H24.1697ZM16.0001 7.83053C15.6282 7.83053 15.2698 7.86382 14.9268 7.90849L15.0559 8.90012C15.3747 8.8586 15.6868 8.83053 16.0001 8.83053V7.83053ZM15.2703 7.98933C14.4352 7.42802 13.4284 7.1001 12.3479 7.1001V8.1001C13.2235 8.1001 14.037 8.36529 14.7124 8.81928L15.2703 7.98933ZM12.3479 7.1001C9.44952 7.1001 7.1001 9.44952 7.1001 12.3479H8.1001C8.1001 10.0018 10.0018 8.1001 12.3479 8.1001V7.1001ZM7.1001 12.3479C7.1001 13.4292 7.42805 14.4352 7.98934 15.2703L8.81929 14.7124C8.36528 14.037 8.1001 13.2242 8.1001 12.3479H7.1001ZM7.90864 14.9257C7.863 15.2703 7.83053 15.6287 7.83053 16.0001H8.83053C8.83053 15.6863 8.85798 15.3742 8.89999 15.057L7.90864 14.9257ZM7.83053 16.0001C7.83053 20.512 11.4882 24.1697 16.0001 24.1697V23.1697C12.0404 23.1697 8.83053 19.9597 8.83053 16.0001H7.83053ZM16.0001 24.1697C16.3708 24.1697 16.7292 24.1372 17.0738 24.0916L16.9424 23.1002C16.6253 23.1422 16.3131 23.1697 16.0001 23.1697V24.1697ZM16.7294 24.011C17.565 24.5721 18.5709 24.9001 19.6523 24.9001V23.9001C18.776 23.9001 17.9632 23.6349 17.2868 23.1808L16.7294 24.011ZM19.6523 24.9001C22.5499 24.9001 24.9001 22.5507 24.9001 19.6523H23.9001C23.9001 21.9983 21.9977 23.9001 19.6523 23.9001V24.9001ZM24.9001 19.6523C24.9001 18.5707 24.5713 17.5648 24.0101 16.7299L23.1802 17.2877C23.6343 17.9634 23.9001 18.7763 23.9001 19.6523H24.9001ZM15.4001 16.5001H16.6001V15.5001H15.4001V16.5001ZM18.8473 13.3765C18.3949 12.4717 17.4701 11.9001 16.4585 11.9001V12.9001C17.0913 12.9001 17.6699 13.2577 17.9529 13.8237L18.8473 13.3765ZM17.9001 17.8001C17.9001 18.5181 17.3181 19.1001 16.6001 19.1001V20.1001C17.8704 20.1001 18.9001 19.0704 18.9001 17.8001H17.9001ZM16.6001 16.5001C17.3181 16.5001 17.9001 17.0821 17.9001 17.8001H18.9001C18.9001 16.5298 17.8704 15.5001 16.6001 15.5001V16.5001ZM15.5417 19.1001C14.9089 19.1001 14.3303 18.7425 14.0473 18.1765L13.1529 18.6237C13.6053 19.5285 14.5301 20.1001 15.5417 20.1001V19.1001ZM13.1001 14.2001C13.1001 15.4704 14.1298 16.5001 15.4001 16.5001V15.5001C14.6821 15.5001 14.1001 14.9181 14.1001 14.2001H13.1001ZM14.1001 14.2001C14.1001 13.4821 14.6821 12.9001 15.4001 12.9001V11.9001C14.1298 11.9001 13.1001 12.9298 13.1001 14.2001H14.1001ZM16.6001 19.1001H15.5417V20.1001H16.6001V19.1001ZM16.4585 11.9001H15.4001V12.9001H16.4585V11.9001Z" fill="white"/>
</svg>
