<svg width="32" height="32" viewBox="0 0 32 32" fill="none" xmlns="http://www.w3.org/2000/svg">
<rect width="32" height="32" rx="8" fill="#1DA1F2"/>
<path d="M24.3742 8.7998L24.8731 8.76673C24.8598 8.56616 24.7277 8.39305 24.5377 8.3273C24.3477 8.26156 24.1369 8.31596 24.0024 8.4654L24.3742 8.7998ZM23.676 12.3505C23.676 12.0743 23.4522 11.8505 23.176 11.8505C22.8999 11.8505 22.676 12.0743 22.676 12.3505H23.676ZM15.9871 12.4491H15.4871V12.4491L15.9871 12.4491ZM15.9871 13.5998L16.4871 13.5998V13.5998L15.9871 13.5998ZM7.6001 21.9998V21.4998C7.37983 21.4998 7.18551 21.6439 7.1216 21.8547C7.0577 22.0655 7.13926 22.2933 7.32245 22.4156L7.6001 21.9998ZM8.79825 8.7998L9.2665 8.62448C9.19673 8.43814 9.02312 8.31091 8.82443 8.30049C8.62573 8.29007 8.43977 8.39846 8.35089 8.57647L8.79825 8.7998ZM13.5908 19.5998L13.9447 19.9531C14.067 19.8305 14.1173 19.6534 14.0774 19.4849C14.0376 19.3163 13.9134 19.1804 13.7492 19.1255L13.5908 19.5998ZM22.2594 9.96786L21.8885 10.3032L22.0686 10.5024L22.3342 10.4622L22.2594 9.96786ZM23.8753 8.83288C23.9375 9.77127 23.8811 10.354 23.7231 10.7995C23.5687 11.2346 23.2999 11.5886 22.8301 12.0388L23.522 12.7608C24.0423 12.2622 24.4364 11.7798 24.6655 11.1338C24.891 10.4983 24.9386 9.75537 24.8731 8.76673L23.8753 8.83288ZM23.676 13.2248V12.3505H22.676V13.2248H23.676ZM15.4871 12.4491L15.4871 13.5998L16.4871 13.5998V12.4491L15.4871 12.4491ZM15.4871 13.5998L15.4871 14.1998L16.4871 14.1998V13.5998L15.4871 13.5998ZM19.6308 8.2998C17.3416 8.2998 15.4871 10.1582 15.4871 12.4491H16.4871C16.4871 10.7091 17.8953 9.2998 19.6308 9.2998V8.2998ZM22.676 13.2248C22.676 18.4584 18.4401 22.6998 13.2164 22.6998V23.6998C18.9938 23.6998 23.676 19.0093 23.676 13.2248H22.676ZM8.32999 8.97513C8.97321 10.693 11.3933 14.0998 15.9871 14.0998V13.0998C11.9543 13.0998 9.82143 10.1066 9.2665 8.62448L8.32999 8.97513ZM8.35089 8.57647C7.10448 11.0732 6.91824 13.4817 7.81628 15.5259C8.71259 17.5661 10.6452 19.1435 13.4325 20.0741L13.7492 19.1255C11.1448 18.2561 9.48297 16.8335 8.73183 15.1237C7.98242 13.4179 8.09572 11.3264 9.2456 9.02314L8.35089 8.57647ZM13.237 19.2465C12.5018 19.9829 10.3055 21.4998 7.6001 21.4998V22.4998C10.6458 22.4998 13.0824 20.8167 13.9447 19.9531L13.237 19.2465ZM22.6302 9.63252C21.8909 8.8148 20.8206 8.2998 19.6308 8.2998V9.2998C20.526 9.2998 21.3305 9.68611 21.8885 10.3032L22.6302 9.63252ZM22.3342 10.4622C23.2231 10.3276 24.0928 9.86019 24.7459 9.13421L24.0024 8.4654C23.4981 9.02599 22.8355 9.3749 22.1845 9.4735L22.3342 10.4622ZM7.32245 22.4156C9.26267 23.7111 11.2968 23.6998 13.2164 23.6998V22.6998C11.2638 22.6998 9.53197 22.6885 7.87774 21.584L7.32245 22.4156Z" fill="white"/>
</svg>
