<svg width="32" height="32" viewBox="0 0 32 32" fill="none" xmlns="http://www.w3.org/2000/svg">
<rect width="32" height="32" rx="8" fill="#665CAC"/>
<path d="M9.27985 21.0406L9.72707 21.2642L9.86538 20.9876L9.67961 20.7403L9.27985 21.0406ZM10.9596 22.7203L11.2599 22.3206L11.0126 22.1348L10.736 22.2731L10.9596 22.7203ZM7.6001 24.4001L7.15288 24.1765C7.05664 24.369 7.09436 24.6015 7.24654 24.7537C7.39872 24.9058 7.63121 24.9436 7.8237 24.8473L7.6001 24.4001ZM12.4001 12.4001L12.1227 11.9841C11.9836 12.0768 11.9001 12.2329 11.9001 12.4001H12.4001ZM19.6001 19.6001V20.1001C19.7673 20.1001 19.9234 20.0165 20.0161 19.8774L19.6001 19.6001ZM14.5052 13.0307L14.9984 12.9485V12.9485L14.5052 13.0307ZM14.6725 14.0348L14.1793 14.117L14.6725 14.0348ZM14.1545 15.2305L14.4319 15.6465L14.1545 15.2305ZM19.7706 19.3443L20.1867 19.6217L19.7706 19.3443ZM18.9694 17.495L19.0516 17.0018H19.0516L18.9694 17.495ZM17.9654 17.3277L17.8832 17.8209H17.8832L17.9654 17.3277ZM16.7697 17.8457L16.3537 17.5683L16.7697 17.8457ZM7.1001 16.0001C7.1001 18.0033 7.76253 19.8533 8.88009 21.3409L9.67961 20.7403C8.68769 19.4199 8.1001 17.7793 8.1001 16.0001H7.1001ZM16.0001 7.1001C11.0848 7.1001 7.1001 11.0848 7.1001 16.0001H8.1001C8.1001 11.637 11.637 8.1001 16.0001 8.1001V7.1001ZM24.9001 16.0001C24.9001 11.0848 20.9154 7.1001 16.0001 7.1001V8.1001C20.3631 8.1001 23.9001 11.637 23.9001 16.0001H24.9001ZM16.0001 24.9001C20.9154 24.9001 24.9001 20.9154 24.9001 16.0001H23.9001C23.9001 20.3631 20.3631 23.9001 16.0001 23.9001V24.9001ZM10.6593 23.1201C12.1469 24.2377 13.9969 24.9001 16.0001 24.9001V23.9001C14.2209 23.9001 12.5803 23.3125 11.2599 22.3206L10.6593 23.1201ZM7.8237 24.8473L11.1832 23.1676L10.736 22.2731L7.37649 23.9529L7.8237 24.8473ZM8.83264 20.817L7.15288 24.1765L8.04731 24.6237L9.72707 21.2642L8.83264 20.817ZM11.9001 12.4001V13.6001H12.9001V12.4001H11.9001ZM18.4001 20.1001H19.6001V19.1001H18.4001V20.1001ZM11.9001 13.6001C11.9001 17.1899 14.8102 20.1001 18.4001 20.1001V19.1001C15.3625 19.1001 12.9001 16.6377 12.9001 13.6001H11.9001ZM12.6774 12.8161L12.9332 12.6456L12.3785 11.8135L12.1227 11.9841L12.6774 12.8161ZM14.012 13.1129L14.1793 14.117L15.1657 13.9526L14.9984 12.9485L14.012 13.1129ZM13.8772 14.8145L12.7227 15.5841L13.2774 16.4161L14.4319 15.6465L13.8772 14.8145ZM14.1793 14.117C14.2246 14.3887 14.1064 14.6617 13.8772 14.8145L14.4319 15.6465C14.9885 15.2754 15.2757 14.6124 15.1657 13.9526L14.1793 14.117ZM12.9332 12.6456C13.3559 12.3638 13.9285 12.6119 14.012 13.1129L14.9984 12.9485C14.7956 11.7317 13.405 11.1293 12.3785 11.8135L12.9332 12.6456ZM20.0161 19.8774L20.1867 19.6217L19.3546 19.067L19.1841 19.3227L20.0161 19.8774ZM19.0516 17.0018L18.0476 16.8345L17.8832 17.8209L18.8872 17.9882L19.0516 17.0018ZM16.3537 17.5683L15.5841 18.7227L16.4161 19.2774L17.1857 18.123L16.3537 17.5683ZM18.0476 16.8345C17.3878 16.7245 16.7248 17.0117 16.3537 17.5683L17.1857 18.123C17.3385 17.8938 17.6115 17.7756 17.8832 17.8209L18.0476 16.8345ZM20.1867 19.6217C20.8709 18.5952 20.2685 17.2046 19.0516 17.0018L18.8872 17.9882C19.3883 18.0717 19.6364 18.6443 19.3546 19.067L20.1867 19.6217Z" fill="white"/>
</svg>
