<svg width="32" height="32" viewBox="0 0 32 32" fill="none" xmlns="http://www.w3.org/2000/svg">
<rect width="32" height="32" rx="8" fill="#FF0000"/>
<path d="M8.93314 22.2858L8.82838 22.7747H8.82838L8.93314 22.2858ZM23.0671 22.2858L23.1718 22.7747L23.0671 22.2858ZM23.0671 9.7145L23.1718 9.2256L23.0671 9.7145ZM8.93314 9.7145L9.0379 10.2034L8.93314 9.7145ZM14.8001 13.6001L15.0774 13.1841C14.924 13.0818 14.7267 13.0723 14.5642 13.1593C14.4016 13.2463 14.3001 13.4158 14.3001 13.6001H14.8001ZM14.8001 18.4001H14.3001C14.3001 18.5845 14.4016 18.754 14.5642 18.841C14.7267 18.928 14.924 18.9185 15.0774 18.8162L14.8001 18.4001ZM18.4001 16.0001L18.6774 16.4162C18.8165 16.3234 18.9001 16.1673 18.9001 16.0001C18.9001 15.833 18.8165 15.6769 18.6774 15.5841L18.4001 16.0001ZM7.1001 11.3635V20.6368H8.1001V11.3635H7.1001ZM24.9001 20.6368V11.3635H23.9001V20.6368H24.9001ZM8.82838 22.7747C13.5559 23.7877 18.4443 23.7877 23.1718 22.7747L22.9623 21.7969C18.3729 22.7803 13.6273 22.7803 9.0379 21.7969L8.82838 22.7747ZM23.1718 9.2256C18.4443 8.21256 13.5559 8.21256 8.82838 9.2256L9.0379 10.2034C13.6273 9.21996 18.3729 9.21996 22.9623 10.2034L23.1718 9.2256ZM24.9001 11.3635C24.9001 10.3325 24.1799 9.44161 23.1718 9.2256L22.9623 10.2034C23.5093 10.3206 23.9001 10.804 23.9001 11.3635H24.9001ZM23.9001 20.6368C23.9001 21.1963 23.5093 21.6797 22.9623 21.7969L23.1718 22.7747C24.1799 22.5587 24.9001 21.6678 24.9001 20.6368H23.9001ZM7.1001 20.6368C7.1001 21.6678 7.82029 22.5587 8.82838 22.7747L9.0379 21.7969C8.4909 21.6797 8.1001 21.1963 8.1001 20.6368H7.1001ZM8.1001 11.3635C8.1001 10.804 8.49089 10.3206 9.0379 10.2034L8.82838 9.2256C7.82029 9.44161 7.1001 10.3325 7.1001 11.3635H8.1001ZM14.3001 13.6001V18.4001H15.3001V13.6001H14.3001ZM15.0774 18.8162L18.6774 16.4162L18.1227 15.5841L14.5227 17.9841L15.0774 18.8162ZM18.6774 15.5841L15.0774 13.1841L14.5227 14.0162L18.1227 16.4162L18.6774 15.5841Z" fill="white"/>
</svg>
