<svg width="13" height="15" viewBox="0 0 13 15" fill="none" xmlns="http://www.w3.org/2000/svg">
<path d="M0.5 8.50003L0.105324 8.19306C-0.0494884 8.3921 -0.0318586 8.67528 0.146447 8.85358L0.5 8.50003ZM5.5 1.50003L5.14645 1.85358V1.85358L5.5 1.50003ZM7.5 3.50003L7.85355 3.85358L8.20711 3.50003L7.85355 3.14648L7.5 3.50003ZM5.5 5.50003L5.14645 5.85358L5.5 6.20714L5.85355 5.85358L5.5 5.50003ZM3.5 3.50003L3.14645 3.85358H3.14645L3.5 3.50003ZM6.63636 4.36366L6.98992 4.71722V4.71722L6.63636 4.36366ZM6.36364 4.63639L6.01008 4.28284V4.28284L6.36364 4.63639ZM6.63636 10.3637L6.28281 10.0101L6.28281 10.0101L6.63636 10.3637ZM12.3636 4.63639L12.0101 4.28284L12.0101 4.28284L12.3636 4.63639ZM12.3636 4.36367L12.0101 4.71722L12.3636 4.36367ZM6.36364 10.3637L6.71719 10.0101L6.36364 10.3637ZM1 15H12V14H1V15ZM6.85355 14.1465L0.853553 8.14648L0.146447 8.85358L6.14645 14.8536L6.85355 14.1465ZM0.894676 8.807L4.39468 4.307L3.60532 3.69306L0.105324 8.19306L0.894676 8.807ZM5.14645 1.85358L7.14645 3.85358L7.85355 3.14648L5.85355 1.14648L5.14645 1.85358ZM7.14645 3.14648L5.14645 5.14648L5.85355 5.85358L7.85355 3.85358L7.14645 3.14648ZM5.85355 5.14648L3.85355 3.14648L3.14645 3.85358L5.14645 5.85358L5.85355 5.14648ZM3.85355 1.85358C4.21058 1.49656 4.78942 1.49656 5.14645 1.85358L5.85355 1.14648C5.10601 0.398929 3.89399 0.398929 3.14645 1.14648L3.85355 1.85358ZM3.14645 1.14648C2.3989 1.89402 2.3989 3.10604 3.14645 3.85358L3.85355 3.14648C3.49653 2.78945 3.49653 2.2106 3.85355 1.85358L3.14645 1.14648ZM6.28281 4.01011L6.01008 4.28284L6.71719 4.98995L6.98992 4.71722L6.28281 4.01011ZM6.98992 10.7172L12.7172 4.98995L12.0101 4.28284L6.28281 10.0101L6.98992 10.7172ZM12.7172 4.98995C12.9878 4.71937 12.9878 4.28069 12.7172 4.01011L12.0101 4.71722C11.8901 4.59727 11.8901 4.40279 12.0101 4.28284L12.7172 4.98995ZM6.01008 10.7172C6.28066 10.9878 6.71934 10.9878 6.98992 10.7172L6.28281 10.0101C6.40276 9.89016 6.59724 9.89016 6.71719 10.0101L6.01008 10.7172ZM6.01008 4.28284C4.23328 6.05964 4.23328 8.94041 6.01008 10.7172L6.71719 10.0101C5.33091 8.62383 5.33091 6.37623 6.71719 4.98995L6.01008 4.28284ZM6.98992 4.71722C8.3762 3.33094 10.6238 3.33094 12.0101 4.71722L12.7172 4.01011C10.9404 2.23331 8.05962 2.23331 6.28281 4.01011L6.98992 4.71722Z" fill="#CACACA"/>
</svg>
