<svg width="51" height="51" viewBox="0 0 51 51" fill="none" xmlns="http://www.w3.org/2000/svg">
<path d="M33.3779 37.533L32.4835 37.9802V37.9802L33.3779 37.533ZM32.3102 35.3975L33.2046 34.9503C33.0353 34.6115 32.689 34.3975 32.3102 34.3975V35.3975ZM18.8254 35.3975V34.3975C18.4467 34.3975 18.1004 34.6115 17.931 34.9503L18.8254 35.3975ZM48.1662 18.5416V33.8059H50.1662V18.5416H48.1662ZM34.2724 37.0857L33.2046 34.9503L31.4158 35.8447L32.4835 37.9802L34.2724 37.0857ZM32.3102 34.3975H18.8254V36.3975H32.3102V34.3975ZM17.931 34.9503L16.8633 37.0857L18.6522 37.9802L19.7199 35.8447L17.931 34.9503ZM2.96948 33.8059V18.5416H0.969482V33.8059H2.96948ZM12.0831 9.42798H39.0526V7.42798H12.0831V9.42798ZM10.3035 41.1399C6.25305 41.1399 2.96948 37.8563 2.96948 33.8059H0.969482C0.969482 38.9609 5.14848 43.1399 10.3035 43.1399V41.1399ZM40.8321 41.1399C38.0542 41.1399 35.5147 39.5704 34.2724 37.0857L32.4835 37.9802C34.0646 41.1424 37.2967 43.1399 40.8321 43.1399V41.1399ZM48.1662 33.8059C48.1662 37.8563 44.8826 41.1399 40.8321 41.1399V43.1399C45.9872 43.1399 50.1662 38.9609 50.1662 33.8059H48.1662ZM16.8633 37.0857C15.621 39.5704 13.0815 41.1399 10.3035 41.1399V43.1399C13.839 43.1399 17.071 41.1424 18.6522 37.9802L16.8633 37.0857ZM50.1662 18.5416C50.1662 12.4037 45.1905 7.42798 39.0526 7.42798V9.42798C44.0859 9.42798 48.1662 13.5083 48.1662 18.5416H50.1662ZM2.96948 18.5416C2.96948 13.5083 7.04977 9.42798 12.0831 9.42798V7.42798C5.9452 7.42798 0.969482 12.4037 0.969482 18.5416H2.96948ZM10.3975 22.9128H20.511V20.9128H10.3975V22.9128ZM14.4543 16.856V26.9695H16.4543V16.856H14.4543ZM37.367 19.5416H40.7382V17.5416H37.367V19.5416ZM30.6246 26.2839H33.9958V24.2839H30.6246V26.2839Z" fill="#0C0C0C"/>
</svg>
