<svg width="52" height="51" viewBox="0 0 52 51" fill="none" xmlns="http://www.w3.org/2000/svg">
<path d="M6.01975 32.0263H9.39095C11.2528 32.0263 12.7621 33.5357 12.7621 35.3975V45.5111C12.7621 47.373 11.2528 48.8823 9.39095 48.8823H6.01975C4.15789 48.8823 2.64856 47.373 2.64856 45.5111V35.3975C2.64856 33.5357 4.15789 32.0263 6.01975 32.0263ZM6.01975 32.0263V21.9128C6.01975 10.7416 15.0758 1.68561 26.2469 1.68561C37.4181 1.68561 46.4741 10.7416 46.4741 21.9128V32.0263M46.4741 32.0263H43.1029C41.241 32.0263 39.7317 33.5357 39.7317 35.3975V45.5111C39.7317 47.373 41.241 48.8823 43.1029 48.8823H46.4741C48.3359 48.8823 49.8453 47.373 49.8453 45.5111V35.3975C49.8453 33.5357 48.3359 32.0263 46.4741 32.0263Z" stroke="#0C0C0C" stroke-width="2"/>
</svg>
