<svg width="52" height="51" viewBox="0 0 52 51" fill="none" xmlns="http://www.w3.org/2000/svg">
<path d="M15.7136 11.7992H35.9408M15.7136 11.7992C13.8517 11.7992 12.3424 13.3085 12.3424 15.1704V35.3975C12.3424 37.2594 13.8517 38.7687 15.7136 38.7687M15.7136 11.7992V5.0568C15.7136 3.19494 17.2229 1.68561 19.0848 1.68561H32.5696C34.4314 1.68561 35.9408 3.19494 35.9408 5.0568V11.7992M35.9408 11.7992C37.8026 11.7992 39.312 13.3085 39.312 15.1704V35.3975C39.312 37.2594 37.8026 38.7687 35.9408 38.7687M35.9408 38.7687H15.7136M35.9408 38.7687V45.5111C35.9408 47.373 34.4314 48.8823 32.5696 48.8823H19.0848C17.2229 48.8823 15.7136 47.373 15.7136 45.5111V38.7687M46.0543 20.2272V30.3407" stroke="#0C0C0C" stroke-width="2"/>
</svg>
