<svg width="18" height="18" viewBox="0 0 18 18" fill="none" xmlns="http://www.w3.org/2000/svg">
<path fill-rule="evenodd" clip-rule="evenodd" d="M6.33333 16.3334C7.06971 16.3334 7.66667 15.7364 7.66667 15C7.66667 14.2636 7.06971 13.6667 6.33333 13.6667C5.59695 13.6667 5 14.2636 5 15C5 15.7364 5.59695 16.3334 6.33333 16.3334Z" stroke="#FF3F5C" stroke-width="1.5" stroke-linecap="round" stroke-linejoin="round"/>
<path fill-rule="evenodd" clip-rule="evenodd" d="M14.3333 16.3334C15.0697 16.3334 15.6667 15.7364 15.6667 15C15.6667 14.2636 15.0697 13.6667 14.3333 13.6667C13.597 13.6667 13 14.2636 13 15C13 15.7364 13.597 16.3334 14.3333 16.3334Z" stroke="#FF3F5C" stroke-width="1.5" stroke-linecap="round" stroke-linejoin="round"/>
<path d="M4.78008 5.00002H16.3334L15.2134 10.5934C15.0876 11.2268 14.5258 11.6791 13.8801 11.6667H6.83341C6.15974 11.6724 5.58764 11.1747 5.50008 10.5067L4.48675 2.82669C4.39983 2.16375 3.83536 1.6677 3.16675 1.66669H1.66675" stroke="#FF3F5C" stroke-width="1.5" stroke-linecap="round" stroke-linejoin="round"/>
</svg>
