<svg width="22" height="21" viewBox="0 0 22 21" fill="none" xmlns="http://www.w3.org/2000/svg">
<path d="M10.8889 18.75L10.1818 19.4571C10.5724 19.8476 11.2055 19.8476 11.596 19.4571L10.8889 18.75ZM2.93631 10.7974L2.22921 11.5045H2.22921L2.93631 10.7974ZM9.60298 4.13071L8.89587 4.83782V4.83782L9.60298 4.13071ZM10.8889 5.41667L10.1818 6.12377C10.5724 6.5143 11.2055 6.5143 11.596 6.12377L10.8889 5.41667ZM12.1749 4.13071L11.4678 3.4236V3.4236L12.1749 4.13071ZM11.596 18.0429L3.64342 10.0903L2.22921 11.5045L10.1818 19.4571L11.596 18.0429ZM18.1345 10.0903L10.1818 18.0429L11.596 19.4571L19.5487 11.5045L18.1345 10.0903ZM8.89587 4.83782L10.1818 6.12377L11.596 4.70956L10.3101 3.4236L8.89587 4.83782ZM11.596 6.12377L12.882 4.83782L11.4678 3.4236L10.1818 4.70956L11.596 6.12377ZM15.5082 1.75C13.9928 1.75 12.5394 2.35201 11.4678 3.4236L12.882 4.83782C13.5785 4.1413 14.5232 3.75 15.5082 3.75V1.75ZM19.2223 7.46404C19.2223 8.44907 18.831 9.39375 18.1345 10.0903L19.5487 11.5045C20.6203 10.4329 21.2223 8.9795 21.2223 7.46404H19.2223ZM21.2223 7.46404C21.2223 4.30826 18.664 1.75 15.5082 1.75V3.75C17.5594 3.75 19.2223 5.41283 19.2223 7.46404H21.2223ZM6.26965 3.75C7.25467 3.75 8.19936 4.1413 8.89587 4.83782L10.3101 3.42361C9.2385 2.35201 7.78511 1.75 6.26965 1.75V3.75ZM2.5556 7.46404C2.5556 5.41283 4.21844 3.75 6.26965 3.75V1.75C3.11387 1.75 0.555603 4.30826 0.555603 7.46404H2.5556ZM3.64342 10.0903C2.9469 9.39375 2.5556 8.44907 2.5556 7.46404H0.555603C0.555603 8.9795 1.15761 10.4329 2.22921 11.5045L3.64342 10.0903Z" fill="#A5A5A5"/>
</svg>
