<svg width="25" height="26" viewBox="0 0 25 26" fill="none" xmlns="http://www.w3.org/2000/svg">
<path d="M12.5714 12.8857H11.5714C11.5714 13.1509 11.6768 13.4053 11.8643 13.5928L12.5714 12.8857ZM12.5714 23.0857C6.93812 23.0857 2.37143 18.519 2.37143 12.8857H0.371429C0.371429 19.6236 5.83355 25.0857 12.5714 25.0857V23.0857ZM22.7714 12.8857C22.7714 18.519 18.2047 23.0857 12.5714 23.0857V25.0857C19.3093 25.0857 24.7714 19.6236 24.7714 12.8857H22.7714ZM12.5714 2.68573C18.2047 2.68573 22.7714 7.25243 22.7714 12.8857H24.7714C24.7714 6.14786 19.3093 0.68573 12.5714 0.68573V2.68573ZM12.5714 0.68573C5.83355 0.68573 0.371429 6.14786 0.371429 12.8857H2.37143C2.37143 7.25243 6.93812 2.68573 12.5714 2.68573V0.68573ZM11.5714 5.68573V12.8857H13.5714V5.68573H11.5714ZM11.8643 13.5928L16.6643 18.3928L18.0785 16.9786L13.2785 12.1786L11.8643 13.5928Z" fill="#CACACA"/>
</svg>
