<svg width="24" height="22" viewBox="0 0 24 22" fill="none" xmlns="http://www.w3.org/2000/svg">
<path d="M11.9999 19.8L11.2928 20.5071C11.4804 20.6946 11.7347 20.8 11.9999 20.8C12.2652 20.8 12.5195 20.6946 12.707 20.5071L11.9999 19.8ZM3.25206 11.0521L2.54495 11.7592L2.54495 11.7592L3.25206 11.0521ZM10.5854 3.71878L9.87828 4.42589H9.87828L10.5854 3.71878ZM11.9999 5.13333L11.2928 5.84044C11.4804 6.02797 11.7347 6.13333 11.9999 6.13333C12.2652 6.13333 12.5195 6.02797 12.707 5.84044L11.9999 5.13333ZM13.4145 3.71878L12.7074 3.01167L12.7074 3.01167L13.4145 3.71878ZM12.707 19.0929L3.95916 10.345L2.54495 11.7592L11.2928 20.5071L12.707 19.0929ZM20.0407 10.345L11.2928 19.0929L12.707 20.5071L21.4549 11.7592L20.0407 10.345ZM9.87828 4.42589L11.2928 5.84044L12.707 4.42622L11.2925 3.01167L9.87828 4.42589ZM12.707 5.84044L14.1216 4.42589L12.7074 3.01167L11.2928 4.42622L12.707 5.84044ZM17.0812 1.2C15.4407 1.2 13.8674 1.85168 12.7074 3.01167L14.1216 4.42589C14.9065 3.64096 15.9711 3.2 17.0812 3.2V1.2ZM21.2666 7.38545C21.2666 8.4955 20.8256 9.56008 20.0407 10.345L21.4549 11.7592C22.6149 10.5992 23.2666 9.02593 23.2666 7.38545H21.2666ZM23.2666 7.38545C23.2666 3.96932 20.4973 1.2 17.0812 1.2V3.2C19.3927 3.2 21.2666 5.07389 21.2666 7.38545H23.2666ZM6.91873 3.2C8.02877 3.2 9.09336 3.64096 9.87828 4.42589L11.2925 3.01167C10.1325 1.85168 8.55921 1.2 6.91873 1.2V3.2ZM2.73328 7.38545C2.73328 5.07389 4.60717 3.2 6.91873 3.2V1.2C3.5026 1.2 0.733276 3.96932 0.733276 7.38545H2.73328ZM3.95916 10.345C3.17424 9.56008 2.73328 8.4955 2.73328 7.38545H0.733276C0.733276 9.02593 1.38495 10.5992 2.54495 11.7592L3.95916 10.345Z" fill="#282828"/>
</svg>
