<svg width="25" height="23" viewBox="0 0 25 23" fill="none" xmlns="http://www.w3.org/2000/svg">
<path d="M12.4999 20.7L11.7928 21.4071C11.9804 21.5946 12.2347 21.7 12.4999 21.7C12.7651 21.7 13.0195 21.5946 13.207 21.4071L12.4999 20.7ZM3.35442 11.5545L2.64731 12.2616L2.64731 12.2616L3.35442 11.5545ZM11.0211 3.88782L10.314 4.59492L11.0211 3.88782ZM12.4999 5.36667L11.7928 6.07377C11.9804 6.26131 12.2347 6.36667 12.4999 6.36667C12.7651 6.36667 13.0195 6.26131 13.207 6.07377L12.4999 5.36667ZM13.9788 3.88782L13.2717 3.18071V3.18071L13.9788 3.88782ZM13.207 19.9929L4.06152 10.8474L2.64731 12.2616L11.7928 21.4071L13.207 19.9929ZM20.9383 10.8474L11.7928 19.9929L13.207 21.4071L22.3526 12.2616L20.9383 10.8474ZM10.314 4.59492L11.7928 6.07377L13.207 4.65956L11.7282 3.18071L10.314 4.59492ZM13.207 6.07377L14.6859 4.59492L13.2717 3.18071L11.7928 4.65956L13.207 6.07377ZM17.8121 1.3C16.1091 1.3 14.4759 1.97651 13.2717 3.18071L14.6859 4.59492C15.515 3.7658 16.6396 3.3 17.8121 3.3V1.3ZM22.2333 7.72115C22.2333 8.89371 21.7675 10.0183 20.9383 10.8474L22.3526 12.2616C23.5568 11.0574 24.2333 9.42415 24.2333 7.72115H22.2333ZM24.2333 7.72115C24.2333 4.17485 21.3584 1.3 17.8121 1.3V3.3C20.2538 3.3 22.2333 5.27942 22.2333 7.72115H24.2333ZM7.18775 3.3C8.36031 3.3 9.48485 3.7658 10.314 4.59492L11.7282 3.18071C10.524 1.97651 8.89075 1.3 7.18775 1.3V3.3ZM2.7666 7.72115C2.7666 5.27942 4.74602 3.3 7.18775 3.3V1.3C3.64145 1.3 0.766602 4.17485 0.766602 7.72115H2.7666ZM4.06153 10.8474C3.2324 10.0182 2.7666 8.89371 2.7666 7.72115H0.766602C0.766602 9.42415 1.44311 11.0574 2.64731 12.2616L4.06153 10.8474Z" fill="white"/>
</svg>
