<svg width="105" height="32" viewBox="0 0 105 32" fill="none" xmlns="http://www.w3.org/2000/svg">
<path d="M20.288 27.7119C13.824 27.7119 8.576 22.4639 8.576 15.9999C8.576 11.9039 11.904 8.51192 16.064 8.51192C20.032 8.51192 23.296 11.6479 23.488 15.6159C23.296 9.34392 18.112 4.28792 11.776 4.28792C5.248 4.28792 0 9.53592 0 15.9999C0 24.8319 7.168 31.9999 16 31.9999C24.832 31.9999 32 24.8319 32 15.9999C32 22.4639 26.752 27.7119 20.288 27.7119Z" fill="url(#paint0_linear)"/>
<path d="M16 0C7.168 0 0 7.168 0 16C0 9.536 5.248 4.288 11.712 4.288C18.176 4.288 23.424 9.536 23.424 16C23.424 20.096 20.096 23.488 15.936 23.488C11.968 23.488 8.704 20.352 8.512 16.384C8.704 22.656 13.888 27.712 20.224 27.712C26.752 27.712 32 22.464 32 16C32 7.168 24.832 0 16 0Z" fill="url(#paint1_linear)"/>
<path d="M51.6165 22H41.6265V9.4H51.6165V11.92H44.8665V14.35H50.1765V16.87H44.8665V19.48H51.6165V22ZM54.8523 9.4H62.4123C63.6723 9.4 64.5843 9.688 65.1483 10.264C65.7243 10.828 66.0123 11.74 66.0123 13V14.8C66.0123 16.06 65.7243 16.978 65.1483 17.554C64.5843 18.118 63.6723 18.4 62.4123 18.4H58.0923V22H54.8523V9.4ZM62.7723 13C62.7723 12.28 62.4123 11.92 61.6923 11.92H58.0923V15.88H61.6923C62.4123 15.88 62.7723 15.52 62.7723 14.8V13ZM75.3716 22H68.8916V19.48H70.5116V11.92H68.8916V9.4H75.3716V11.92H73.7516V19.48H75.3716V22ZM82.0302 22H78.7902V9.4H82.0302V14.35H83.6502L86.4582 9.4H89.8782L86.3502 15.61L89.8602 22H86.4402L83.6502 16.87H82.0302V22ZM95.0042 22H91.4942L96.2642 9.4H99.8642L104.634 22H101.124L100.314 19.75H95.8142L95.0042 22ZM96.6242 17.41H99.5042L98.0642 13.18L96.6242 17.41Z" fill="#282828"/>
<defs>
<linearGradient id="paint0_linear" x1="15.9999" y1="31.9999" x2="15.9999" y2="4.26718" gradientUnits="userSpaceOnUse">
<stop stop-color="#EF4632"/>
<stop offset="0.1721" stop-color="#EA4431"/>
<stop offset="0.3504" stop-color="#E03E2D"/>
<stop offset="0.5316" stop-color="#D03427"/>
<stop offset="0.7148" stop-color="#B9261E"/>
<stop offset="0.8977" stop-color="#9D1310"/>
<stop offset="1" stop-color="#8B0304"/>
</linearGradient>
<linearGradient id="paint1_linear" x1="15.9999" y1="27.7328" x2="15.9999" y2="0" gradientUnits="userSpaceOnUse">
<stop stop-color="#8B0304"/>
<stop offset="0.1023" stop-color="#9D1310"/>
<stop offset="0.2852" stop-color="#B9261E"/>
<stop offset="0.4684" stop-color="#D03427"/>
<stop offset="0.6496" stop-color="#E03E2D"/>
<stop offset="0.8279" stop-color="#EA4431"/>
<stop offset="1" stop-color="#EF4632"/>
</linearGradient>
</defs>
</svg>
