<svg width="16" height="16" viewBox="0 0 16 16" fill="none" xmlns="http://www.w3.org/2000/svg">
<path d="M15.4667 3.73333L15.8202 4.08688C16.0155 3.89162 16.0155 3.57503 15.8202 3.37977L15.4667 3.73333ZM0.533325 12.2667L0.179772 11.9131C-0.01549 12.1084 -0.0154901 12.4249 0.179772 12.6202L0.533325 12.2667ZM11.9131 0.886879L15.1131 4.08688L15.8202 3.37977L12.6202 0.179772L11.9131 0.886879ZM15.1131 3.37977L11.9131 6.57977L12.6202 7.28688L15.8202 4.08688L15.1131 3.37977ZM4.08688 15.1131L0.886879 11.9131L0.179772 12.6202L3.37977 15.8202L4.08688 15.1131ZM0.886879 12.6202L4.08688 9.42021L3.37977 8.71311L0.179772 11.9131L0.886879 12.6202ZM0.533325 12.7667H12.2667V11.7667H0.533325V12.7667ZM15.9667 9.06666V7.46666H14.9667V9.06666H15.9667ZM12.2667 12.7667C14.3101 12.7667 15.9667 11.1101 15.9667 9.06666H14.9667C14.9667 10.5578 13.7578 11.7667 12.2667 11.7667V12.7667ZM15.4667 3.23333H3.73333V4.23333H15.4667V3.23333ZM0.0333252 6.93332V8.53332H1.03333V6.93332H0.0333252ZM3.73333 3.23333C1.68987 3.23333 0.0333252 4.88987 0.0333252 6.93332H1.03333C1.03333 5.44216 2.24216 4.23333 3.73333 4.23333V3.23333Z" fill="#5F5F5F"/>
</svg>
