<svg width="16" height="16" viewBox="0 0 16 16" fill="none" xmlns="http://www.w3.org/2000/svg">
<path d="M15.4668 3.73333L15.8203 4.08689C16.0156 3.89162 16.0156 3.57504 15.8203 3.37978L15.4668 3.73333ZM0.533448 12.2667L0.179894 11.9131C-0.0153679 12.1084 -0.015368 12.425 0.179894 12.6202L0.533448 12.2667ZM11.9132 0.886886L15.1132 4.08689L15.8203 3.37978L12.6203 0.179779L11.9132 0.886886ZM15.1132 3.37978L11.9132 6.57978L12.6203 7.28689L15.8203 4.08689L15.1132 3.37978ZM4.087 15.1131L0.887001 11.9131L0.179894 12.6202L3.37989 15.8202L4.087 15.1131ZM0.887001 12.6202L4.087 9.42022L3.37989 8.71311L0.179894 11.9131L0.887001 12.6202ZM0.533448 12.7667H12.2668V11.7667H0.533448V12.7667ZM15.9668 9.06667V7.46667H14.9668V9.06667H15.9668ZM12.2668 12.7667C14.3102 12.7667 15.9668 11.1101 15.9668 9.06667H14.9668C14.9668 10.5578 13.7579 11.7667 12.2668 11.7667V12.7667ZM15.4668 3.23333H3.73345V4.23333H15.4668V3.23333ZM0.0334473 6.93333V8.53333H1.03345V6.93333H0.0334473ZM3.73345 3.23333C1.68999 3.23333 0.0334473 4.88988 0.0334473 6.93333H1.03345C1.03345 5.44216 2.24228 4.23333 3.73345 4.23333V3.23333Z" fill="white"/>
</svg>
