<svg width="24" height="24" viewBox="0 0 24 24" fill="none" xmlns="http://www.w3.org/2000/svg">
<path fill-rule="evenodd" clip-rule="evenodd" d="M8.33333 22.0833C9.34585 22.0833 10.1667 21.2625 10.1667 20.25C10.1667 19.2375 9.34585 18.4167 8.33333 18.4167C7.32081 18.4167 6.5 19.2375 6.5 20.25C6.5 21.2625 7.32081 22.0833 8.33333 22.0833Z" stroke="white" stroke-width="2" stroke-linecap="round" stroke-linejoin="round"/>
<path fill-rule="evenodd" clip-rule="evenodd" d="M19.3333 22.0833C20.3459 22.0833 21.1667 21.2625 21.1667 20.25C21.1667 19.2375 20.3459 18.4167 19.3333 18.4167C18.3208 18.4167 17.5 19.2375 17.5 20.25C17.5 21.2625 18.3208 22.0833 19.3333 22.0833Z" stroke="white" stroke-width="2" stroke-linecap="round" stroke-linejoin="round"/>
<path d="M6.19758 6.5H22.0834L20.5434 14.1908C20.3704 15.0619 19.598 15.6837 18.7101 15.6667H9.02091C8.09461 15.6745 7.30797 14.9902 7.18758 14.0717L5.79425 3.51167C5.67473 2.60013 4.89859 1.91806 3.97925 1.91667H1.91675" stroke="white" stroke-width="2" stroke-linecap="round" stroke-linejoin="round"/>
</svg>
