<svg width="16" height="16" viewBox="0 0 16 16" fill="none" xmlns="http://www.w3.org/2000/svg">
<path d="M3.23333 13.8667V14.3667H4.23333V13.8667H3.23333ZM11.7667 13.8667V14.3667H12.7667V13.8667H11.7667ZM4.23333 13.8667V13.3332H3.23333V13.8667H4.23333ZM6.93332 10.6333H9.06666V9.63332H6.93332V10.6333ZM11.7667 13.3332V13.8667H12.7667V13.3332H11.7667ZM9.06666 10.6333C10.5579 10.6333 11.7667 11.842 11.7667 13.3332H12.7667C12.7667 11.2897 11.1101 9.63332 9.06666 9.63332V10.6333ZM4.23333 13.3332C4.23333 11.842 5.44213 10.6333 6.93332 10.6333V9.63332C4.8899 9.63332 3.23333 11.2897 3.23333 13.3332H4.23333ZM7.99999 3.23333C6.54564 3.23333 5.36666 4.41231 5.36666 5.86666H6.36666C6.36666 4.96459 7.09793 4.23333 7.99999 4.23333V3.23333ZM10.6333 5.86666C10.6333 4.41231 9.45434 3.23333 7.99999 3.23333V4.23333C8.90206 4.23333 9.63332 4.96459 9.63332 5.86666H10.6333ZM7.99999 8.49999C9.45434 8.49999 10.6333 7.32101 10.6333 5.86666H9.63332C9.63332 6.76872 8.90206 7.49999 7.99999 7.49999V8.49999ZM7.99999 7.49999C7.09793 7.49999 6.36666 6.76872 6.36666 5.86666H5.36666C5.36666 7.32101 6.54564 8.49999 7.99999 8.49999V7.49999ZM7.99999 14.9667C4.15241 14.9667 1.03333 11.8476 1.03333 7.99999H0.0333252C0.0333252 12.3999 3.60012 15.9667 7.99999 15.9667V14.9667ZM14.9667 7.99999C14.9667 11.8476 11.8476 14.9667 7.99999 14.9667V15.9667C12.3999 15.9667 15.9667 12.3999 15.9667 7.99999H14.9667ZM7.99999 1.03333C11.8476 1.03333 14.9667 4.15241 14.9667 7.99999H15.9667C15.9667 3.60012 12.3999 0.0333252 7.99999 0.0333252V1.03333ZM7.99999 0.0333252C3.60012 0.0333252 0.0333252 3.60012 0.0333252 7.99999H1.03333C1.03333 4.15241 4.15241 1.03333 7.99999 1.03333V0.0333252Z" fill="#5F5F5F"/>
</svg>
