<svg width="16" height="16" viewBox="0 0 16 16" fill="none" xmlns="http://www.w3.org/2000/svg">
<path d="M3.23345 13.8667V14.3667H4.23345V13.8667H3.23345ZM11.7668 13.8667V14.3667H12.7668V13.8667H11.7668ZM4.23345 13.8667V13.3332H3.23345V13.8667H4.23345ZM6.93345 10.6333H9.06678V9.63333H6.93345V10.6333ZM11.7668 13.3332V13.8667H12.7668V13.3332H11.7668ZM9.06678 10.6333C10.558 10.6333 11.7668 11.842 11.7668 13.3332H12.7668C12.7668 11.2897 11.1102 9.63333 9.06678 9.63333V10.6333ZM4.23345 13.3332C4.23345 11.842 5.44225 10.6333 6.93345 10.6333V9.63333C4.89002 9.63333 3.23345 11.2897 3.23345 13.3332H4.23345ZM8.00011 3.23333C6.54576 3.23333 5.36678 4.41232 5.36678 5.86667H6.36678C6.36678 4.9646 7.09805 4.23333 8.00011 4.23333V3.23333ZM10.6334 5.86667C10.6334 4.41232 9.45446 3.23333 8.00011 3.23333V4.23333C8.90218 4.23333 9.63345 4.9646 9.63345 5.86667H10.6334ZM8.00011 8.5C9.45446 8.5 10.6334 7.32102 10.6334 5.86667H9.63345C9.63345 6.76873 8.90218 7.5 8.00011 7.5V8.5ZM8.00011 7.5C7.09805 7.5 6.36678 6.76873 6.36678 5.86667H5.36678C5.36678 7.32102 6.54576 8.5 8.00011 8.5V7.5ZM8.00011 14.9667C4.15253 14.9667 1.03345 11.8476 1.03345 8H0.0334473C0.0334473 12.3999 3.60025 15.9667 8.00011 15.9667V14.9667ZM14.9668 8C14.9668 11.8476 11.8477 14.9667 8.00011 14.9667V15.9667C12.4 15.9667 15.9668 12.3999 15.9668 8H14.9668ZM8.00011 1.03333C11.8477 1.03333 14.9668 4.15242 14.9668 8H15.9668C15.9668 3.60013 12.4 0.0333328 8.00011 0.0333328V1.03333ZM8.00011 0.0333328C3.60025 0.0333328 0.0334473 3.60013 0.0334473 8H1.03345C1.03345 4.15242 4.15253 1.03333 8.00011 1.03333V0.0333328Z" fill="white"/>
</svg>
