<svg width="22" height="21" viewBox="0 0 22 21" fill="none" xmlns="http://www.w3.org/2000/svg">
<path d="M11.2813 18.6055L10.5742 19.3126C10.7618 19.5001 11.0161 19.6055 11.2813 19.6055C11.5465 19.6055 11.8009 19.5001 11.9884 19.3126L11.2813 18.6055ZM3.32871 10.6528L2.6216 11.36H2.6216L3.32871 10.6528ZM9.99538 3.98618L9.28827 4.69329V4.69329L9.99538 3.98618ZM11.2813 5.27214L10.5742 5.97924C10.7618 6.16678 11.0161 6.27214 11.2813 6.27214C11.5465 6.27214 11.8009 6.16678 11.9884 5.97924L11.2813 5.27214ZM12.5673 3.98618L11.8602 3.27907L11.8602 3.27907L12.5673 3.98618ZM11.9884 17.8984L4.03582 9.94574L2.6216 11.36L10.5742 19.3126L11.9884 17.8984ZM18.5268 9.94574L10.5742 17.8984L11.9884 19.3126L19.9411 11.36L18.5268 9.94574ZM9.28827 4.69329L10.5742 5.97924L11.9884 4.56503L10.7025 3.27907L9.28827 4.69329ZM11.9884 5.97924L13.2744 4.69329L11.8602 3.27907L10.5742 4.56503L11.9884 5.97924ZM15.9006 1.60547C14.3852 1.60547 12.9318 2.20748 11.8602 3.27907L13.2744 4.69329C13.9709 3.99677 14.9156 3.60547 15.9006 3.60547V1.60547ZM19.6147 7.31951C19.6147 8.30454 19.2234 9.24922 18.5268 9.94574L19.9411 11.36C21.0126 10.2884 21.6147 8.83497 21.6147 7.31951H19.6147ZM21.6147 7.31951C21.6147 4.16373 19.0564 1.60547 15.9006 1.60547V3.60547C17.9518 3.60547 19.6147 5.2683 19.6147 7.31951H21.6147ZM6.66204 3.60547C7.64707 3.60547 8.59175 3.99677 9.28827 4.69329L10.7025 3.27907C9.63089 2.20748 8.1775 1.60547 6.66204 1.60547V3.60547ZM2.948 7.31951C2.948 5.2683 4.61083 3.60547 6.66204 3.60547V1.60547C3.50626 1.60547 0.947998 4.16373 0.947998 7.31951H2.948ZM4.03582 9.94574C3.3393 9.24922 2.948 8.30454 2.948 7.31951H0.947998C0.947998 8.83497 1.55001 10.2884 2.6216 11.36L4.03582 9.94574Z" fill="#A5A5A5"/>
</svg>
