<svg width="22" height="20" viewBox="0 0 22 20" fill="none" xmlns="http://www.w3.org/2000/svg">
<path d="M22 3.93333L9.53333 3.93333M9.53333 3.93333C9.53333 2.3133 8.22004 1 6.6 1C4.97997 1 3.66667 2.3133 3.66667 3.93333M9.53333 3.93333C9.53333 5.55337 8.22004 6.86667 6.6 6.86667C4.97997 6.86667 3.66667 5.55337 3.66667 3.93333M3.66667 3.93333H0M22 15.6667L18.3333 15.6667M18.3333 15.6667C18.3333 14.0466 17.02 12.7333 15.4 12.7333C13.78 12.7333 12.4667 14.0466 12.4667 15.6667M18.3333 15.6667C18.3333 17.2867 17.02 18.6 15.4 18.6C13.78 18.6 12.4667 17.2867 12.4667 15.6667M12.4667 15.6667H1.86481e-07" stroke="black" stroke-width="1.5"/>
</svg>
