<svg width="32" height="32" viewBox="0 0 32 32" fill="none" xmlns="http://www.w3.org/2000/svg">
<path d="M10.6666 11.7333H12.8M19.2 20.2667H21.3333M21.3333 10.6667L10.6666 21.3333M14.5098 1.68394L12.1012 4.09252C11.7059 4.48775 11.1699 4.70979 10.6109 4.70979H6.81728C5.65334 4.70979 4.70978 5.65335 4.70978 6.8173V10.611C4.70978 11.1699 4.48774 11.706 4.0925 12.1012L1.68392 14.5098C0.860893 15.3328 0.860892 16.6672 1.68392 17.4902L4.0925 19.8988C4.48774 20.294 4.70978 20.8301 4.70978 21.389V25.1827C4.70978 26.3466 5.65334 27.2902 6.81728 27.2902H10.6109C11.1699 27.2902 11.7059 27.5122 12.1012 27.9075L14.5098 30.3161C15.3328 31.1391 16.6672 31.1391 17.4902 30.3161L19.8988 27.9075C20.294 27.5122 20.8301 27.2902 21.389 27.2902H25.1827C26.3466 27.2902 27.2902 26.3466 27.2902 25.1827V21.389C27.2902 20.8301 27.5122 20.294 27.9075 19.8988L30.316 17.4902C31.1391 16.6672 31.1391 15.3328 30.316 14.5098L27.9075 12.1012C27.5122 11.706 27.2902 11.1699 27.2902 10.611V6.8173C27.2902 5.65335 26.3466 4.70979 25.1827 4.70979H21.389C20.8301 4.70979 20.294 4.48775 19.8988 4.09252L17.4902 1.68394C16.6672 0.860908 15.3328 0.860907 14.5098 1.68394Z" stroke="black" stroke-width="2"/>
</svg>
