<svg width="28" height="28" viewBox="0 0 28 28" fill="none" xmlns="http://www.w3.org/2000/svg">
<path d="M25.2 14H2.80002M25.2 14C26.231 14 27.0667 13.1643 27.0667 12.1333V10.2667C27.0667 9.23572 26.231 8.39999 25.2 8.39999H2.80002C1.76908 8.39999 0.93335 9.23572 0.93335 10.2667V12.1333C0.93335 13.1643 1.76909 14 2.80002 14M25.2 14V23.3333C25.2 25.3952 23.5285 27.0667 21.4667 27.0667H6.53335C4.47149 27.0667 2.80002 25.3952 2.80002 23.3333L2.80002 14M14 8.39999V6.53332M14 8.39999H7.86668C6.09937 8.39999 4.66668 6.9673 4.66668 5.19999V4.66665C4.66668 2.60479 6.33815 0.933319 8.40002 0.933319C11.4928 0.933319 14 3.44053 14 6.53332M14 8.39999H20.1334C21.9007 8.39999 23.3334 6.9673 23.3334 5.19999V4.66665C23.3334 2.60479 21.6619 0.933319 19.6 0.933319C16.5072 0.933319 14 3.44053 14 6.53332M14 8.39999V27.0667" stroke="white"/>
</svg>
