<svg width="31" height="30" viewBox="0 0 31 30" fill="none" xmlns="http://www.w3.org/2000/svg">
<path d="M27.7429 12.0286V5.09524C27.7429 4.00119 26.856 3.11429 25.7619 3.11429L3.97143 3.11429C2.87738 3.11429 1.99048 4.00119 1.99048 5.09524L1.99048 24.9048C1.99048 25.9988 2.87738 26.8857 3.97143 26.8857L25.7619 26.8857C26.856 26.8857 27.7429 25.9988 27.7429 24.9048V17.9714M29.5865 11.0381H19.819C17.6309 11.0381 15.8571 12.8119 15.8571 15C15.8571 17.1881 17.631 18.9619 19.8191 18.9619H29.5865C29.6623 18.9619 29.7238 18.9004 29.7238 18.8246V11.1754C29.7238 11.0996 29.6623 11.0381 29.5865 11.0381Z" stroke="black" stroke-width="2"/>
</svg>
